<?xml version="1.0" encoding="UTF-8" standalone="no"?>
<!-- Created with Inkscape (http://www.inkscape.org/) -->

<svg
   width="210mm"
   height="297mm"
   viewBox="0 0 210 297"
   version="1.1"
   id="svg5"
   xml:space="preserve"
   inkscape:version="1.2.2 (b0a8486541, 2022-12-01)"
   sodipodi:docname="Secure_Sam.svg"
   xmlns:inkscape="http://www.inkscape.org/namespaces/inkscape"
   xmlns:sodipodi="http://sodipodi.sourceforge.net/DTD/sodipodi-0.dtd"
   xmlns="http://www.w3.org/2000/svg"
   xmlns:svg="http://www.w3.org/2000/svg"><sodipodi:namedview
     id="namedview7"
     pagecolor="#ffffff"
     bordercolor="#000000"
     borderopacity="0.25"
     inkscape:showpageshadow="2"
     inkscape:pageopacity="0.0"
     inkscape:pagecheckerboard="0"
     inkscape:deskcolor="#d1d1d1"
     inkscape:document-units="mm"
     showgrid="false"
     inkscape:zoom="0.53165938"
     inkscape:cx="132.6037"
     inkscape:cy="514.42711"
     inkscape:window-width="1920"
     inkscape:window-height="1056"
     inkscape:window-x="1920"
     inkscape:window-y="0"
     inkscape:window-maximized="1"
     inkscape:current-layer="g314" /><defs
     id="defs2" /><g
     inkscape:label="Ebene 1"
     inkscape:groupmode="layer"
     id="layer1"><g
       id="g314"><path
         style="opacity:1;fill:#ffffff;fill-opacity:1;stroke-width:0.321343"
         d="m 49.591483,103.83099 1.860051,75.01449 c 0,0 66.037846,0.62224 66.595706,-0.0767 0.55786,-0.69887 -2.28419,-74.50612 -2.28419,-74.50612 z"
         id="path2625"
         sodipodi:nodetypes="ccscc"
         inkscape:label="Karte" /><path
         style="opacity:1;fill:#ffffff;fill-opacity:1;stroke-width:0.321343"
         d="m 97.978353,18.57714 c 2.452497,-0.718803 5.481437,1.545785 5.961407,6.174528 0.63225,6.097101 -0.24277,6.52709 -2.59641,7.653508 -2.320666,1.110642 -4.576529,-3.19069 -5.540241,-5.520563 -0.374606,-4.561778 -0.282388,-5.567016 2.175244,-8.307473 z"
         id="path1531"
         sodipodi:nodetypes="csscc"
         inkscape:label="Auge" /><path
         style="display:inline;fill:#79c300;fill-opacity:1;stroke-width:0.321343"
         d="m 132.12628,291.07008 c -0.87847,-0.336 -1.99758,-0.99858 -4.33553,-2.13604 -2.77124,-1.34825 -3.48336,-1.6417 -4.22187,-1.6417 -1.01473,0 -3.2165,1.24524 -6.06943,2.56112 -2.07549,1.06689 -2.48373,1.47254 -4.88285,2.21001 0,0.2751 -2.81165,-10e-4 -3.51906,-10e-4 -0.67519,0 6.0143,-5.91051 8.88917,-7.83973 0.66579,-0.44679 3.43952,-2.61092 3.51926,-2.98308 0.16533,-0.7715 1.38119,-19.22568 1.86596,-26.9493 0.17729,-2.8248 0.3828,-7.42765 0.3828,-10.19446 0,-4.98062 0.40445,-4.22588 -0.60757,-6.3876 l -1.11693,-2.81533 -0.13017,-3.74089 c -0.0623,-1.79137 0.76617,-5.68985 0.94924,-7.2805 -0.6667,-9.22078 1.05213,-11.31074 -0.88665,-11.11401 -0.86884,0.0521 -9.58468,-0.34273 -14.37015,-1.48256 -4.9797,-1.18611 -11.871482,-3.24277 -14.645369,-4.51398 -5.188268,-2.37766 -11.405087,-7.0265 -15.874727,-16.2669 -1.285151,-2.65688 -0.893129,-3.47019 -1.740189,-3.54766 -0.228635,-0.0209 -1.513752,-3.08776 -0.983546,-3.22268 2.951005,-0.7509 -7.008949,-6.20806 0.878204,-5.07361 3.213949,0.46229 26.693287,0.96683 28.241147,0.75922 1.27227,-0.17066 14.55653,1.15545 14.88852,-0.45401 0.51473,-2.4954 -0.6928,-0.75255 -0.68465,-6.05283 0.004,-2.60691 -0.98605,-13.642 -0.92817,-13.642 0.0579,0 6.7822,1.37858 7.8397,1.80828 3.5258,1.43266 5.97203,1.1052 10.72129,1.86972 4.57375,0.73626 1.57666,0.52411 5.61089,-0.12174 1.21572,-0.19463 3.97019,0.51606 4.64371,-0.90765 0.43972,-0.92951 1.3232,-0.90997 1.3232,-1.26287 0,-0.92466 -2.37799,-4.35647 -5.32008,-7.47991 -1.39447,-1.48042 -3.02089,-2.62041 -3.41037,-3.39288 -0.97288,-1.92955 -4.82421,-4.18833 -6.21654,-5.52215 -0.63577,-0.60906 -3.95733,-3.3357 -3.95733,-3.49534 0,-0.3058 5.39555,-1.55032 7.05879,-1.18436 0.53022,0.11672 6.09844,0.38479 6.38502,0.41329 3.84576,0.0874 6.68294,-5.02601 9.97936,-9.71913 1.02914,-1.73731 4.73799,-5.10548 5.21477,-4.95159 0.61843,0.19962 5.25104,6.58479 5.64233,11.18324 0.39067,4.59109 1.2026,4.28016 0.13524,12.80867 -0.27649,2.20923 3.54467,-4.75273 3.00229,-0.2459 -1.33694,11.10927 -1.50258,12.70761 -2.69701,17.04755 -1.10788,4.02545 1.17311,-4.62499 2.38637,1.62627 1.51282,7.79464 -7.47827,27.99698 -10.54806,29.83315 -1.1292,0.67543 -6.27016,6.74446 -11.98756,9.92214 -6.55146,3.64123 -13.73206,4.39799 -14.32836,4.39799 -0.79154,-0.73525 -2.46207,11.66698 -0.72488,18.9062 0.39778,1.33253 0.2981,4.78824 0.0431,6.39855 -0.6099,3.85219 -1.25197,17.45041 -1.45752,30.59621 -0.23215,14.84824 -0.49823,12.96306 2.21011,15.00424 1.96566,1.48144 10.45219,9.87715 10.24821,10.1609 -0.96236,1.33868 -1.93662,0.12762 -2.79461,-0.25767 z M 72.935372,280.25745 c 2.172897,-1.46417 2.286378,-1.47443 1.12053,-1.18675 l -5.592523,-0.50524 c -2.841473,-0.25668 -7.202894,-0.7795 -6.55461,-0.90937 0.618586,-0.12392 4.385587,-1.1329 4.739063,-1.33239 0.353478,-0.19951 3.112487,-0.26434 4.791503,-0.5448 1.679018,-0.28045 4.073331,-1.03796 5.222133,-1.29128 2.66322,-0.58724 9.959659,-1.48473 10.312695,-1.26654 0.147346,0.0911 0.859897,-1.0966 1.716118,-2.98631 1.870886,-4.12912 8.34637,-21.14019 12.070319,-35.08857 0.31925,-1.19576 -1.083242,-2.22277 -0.909991,-4.54864 0.261651,-3.51257 -0.393822,-8.51453 0.08799,-12.35934 0.314921,-2.51302 -0.723155,-6.4315 -0.260656,-7.82316 0.373567,-1.12407 2.204997,-0.008 2.790627,0.21787 0.0736,0.0283 0.5499,0.46898 0.79113,1.9441 0.4049,2.47589 0.62246,7.17968 0.63113,12.72575 0.004,2.74581 3.00134,5.70479 1.84417,8.98778 -4.15892,11.79929 -11.239539,31.02141 -11.885104,32.70154 -1.999024,5.20259 -3.084449,7.58575 -2.920998,8.10077 0.09553,0.30098 0.714143,0.7182 2.138534,1.77419 1.80716,1.33977 4.482654,3.635 4.482654,4.18537 0,0.5479 -1.524988,0.84616 -4.169249,-0.0855 -3.428192,-1.20779 -5.475043,-1.33907 -8.606677,-0.46252 -3.196969,0.89485 -7.846603,2.37663 -9.424612,3.04859 -2.668439,0.75848 -6.558733,0.57648 -7.351449,0.0254 -0.724613,-0.50374 1.565375,-1.84547 4.937271,-3.321 z m 60.570388,-117.9345 c -1.23717,-0.23837 -5.09385,-0.66741 -7.3031,-1.21683 -2.20923,-0.54943 -4.78802,-1.57794 -6.46703,-1.91776 -3.61214,-0.7311 -6.72298,-1.71145 -6.31392,-2.10819 -0.54006,-0.68053 -2.25835,-0.60312 -2.25444,-0.61388 0.0946,-0.15315 -1.11713,-0.036 -1.36621,-0.45617 -0.10694,-0.18037 0.94261,-1.39926 2.0481,-2.28295 2.94157,-3.086 2.65908,-2.82034 1.53309,-2.66626 -0.18717,0 -0.93025,0.26206 -0.82847,0.0974 0.10178,-0.16466 -0.58486,-0.0836 -1.1202,0.18336 -0.53533,0.26706 -1.17366,-0.34823 -1.37758,-0.41621 -0.38643,-0.1288 4.12044,-4.54047 4.62293,-4.54047 0.1576,0 1.14064,-1.10425 1.80114,-1.72001 1.25041,-1.16573 -1.00673,-7.49222 0.75007,-8.29471 0.80775,-0.36898 7.85097,3.89329 8.70231,4.18356 1.49561,0.50995 7.1022,4.41416 7.68435,5.30265 3.55079,3.30944 8.59295,7.43876 11.80117,11.98333 0.53485,0.79532 1.0831,2.53371 1.01759,2.83127 -0.2843,1.29139 -8.78425,2.45065 -12.9298,1.65192 z M 45.584281,138.30428 c -1.351682,-0.16699 -3.071072,-1.53831 -3.33611,-2.95108 -0.245494,-1.30859 0.23475,-3.61398 0.974385,-3.8953 1.165885,-0.44344 6.486265,1.33734 9.061643,2.6135 4.082154,2.02282 4.029281,4.25779 1.367047,4.63316 -0.907049,0.12789 -2.815452,-0.3463 -3.204299,0.58003 -0.379469,0.90399 -1.194487,2.32916 -2.034748,1.775 -0.730539,-0.48178 -2.243905,-2.68318 -2.827918,-2.75531 z m 6.901575,-5.09584 c -3.106957,-0.734 -8.362309,-2.53882 -8.865018,-2.99376 -0.308769,-0.27943 -0.987514,-1.57122 -1.176055,-2.45036 -0.398706,-1.85911 -0.04457,-3.5221 1.280796,-3.69959 1.66137,-0.2225 12.069689,4.83954 12.92027,7.09055 0.528253,1.39798 -1.260984,2.73803 -4.159993,2.05316 z m 2.255242,-5.34181 c -0.353477,-0.0902 -1.529139,-0.48842 -2.462254,-0.91178 -0.933113,-0.42334 -1.844942,-0.84657 -1.947088,-0.84657 -0.102144,0 -1.65949,-0.7214 -3.500693,-1.54791 -2.593128,-1.16405 -3.17047,-2.11226 -3.315631,-2.69063 -0.252659,-1.00667 0.0216,-2.17093 0.860186,-3.23702 0.704962,-0.8962 1.871491,-1.15332 4.056066,-0.6256 2.11089,0.50994 8.435392,5.59524 8.354712,6.65951 -0.0119,0.15698 0.79953,0.93449 0.986988,1.05034 0.187459,0.11587 0.175439,1.01609 0.223999,1.4502 0.07169,0.64084 -0.906474,1.04965 -1.558711,1.09006 -0.460097,-0.39583 -0.966936,-0.0447 -1.697574,-0.3906 z m 37.187568,-23.92526 c 0,-0.51672 6.670605,-12.842273 9.462994,-16.935325 7.51586,-11.016625 11.45969,-18.799391 13.7941,-25.651591 2.36446,-3.50966 2.66108,-8.920911 3.27045,-13.108639 -3.09251,0.645092 -5.72,3.190221 -13.64739,3.394034 -3.80649,0.0032 -9.697483,-0.908407 -9.976697,-1.636033 -0.08604,-0.224195 2.179259,-3.894513 2.644033,-4.743254 0.728382,-1.330129 0.90157,-1.890431 0.920641,-4.383269 0.02692,-3.521425 -0.42984,-4.810006 -2.964242,-7.352122 -2.282245,-2.289193 -4.01462,-2.984839 -7.036909,-3.091876 -2.847412,-0.10084 -3.278383,-0.06842 -5.341042,1.179974 l -2.257008,1.366019 -0.259731,-2.901019 c -0.232797,-2.600163 0.519642,-6.958893 1.323602,-8.22101 3.313505,-5.201794 6.028977,-9.481237 9.75548,-11.8615915 1.146275,-0.7322005 5.560275,-2.4615798 7.251681,-3.3793991 1.691412,-0.9178181 5.807912,-0.6332002 4.543472,-0.8385079 -0.33177,-0.053867 6.31911,0.1125871 8.04965,0.4584992 3.31456,0.6625365 5.85848,2.0879517 10.1717,5.2203993 1.53013,1.111233 4.58127,4.946399 5.72111,6.986513 1.04096,1.863121 2.21561,4.616168 2.52812,6.005135 0.0906,0.402723 0.6164,1.459607 0.87588,2.431669 1.11318,4.17015 0.76518,13.402118 -0.33446,19.407545 -2.35089,12.839441 -8.70678,26.392614 -11.55556,33.06224 -0.95005,2.2243 -8.47739,21.755579 -9.58592,24.260889 -6.82415,0.43349 -9.372082,1.08107 -17.353954,0.33072 z m 9.768414,-71.532295 c 1.28218,-0.171317 1.79796,-1.737226 2.06948,-3.09483 0.13951,-0.697536 0.5954,-1.802911 1.24247,-2.153313 -0.19292,-2.013819 -0.12911,-0.04502 -1.03673,-3.554673 -0.773,-2.973185 -2.90004,-5.218026 -5.095883,-5.218026 -1.557862,0 -2.676853,1.201365 -3.157325,2.9312 -0.514361,1.851836 -0.784073,4.073763 -0.06986,6.193881 0.83669,2.48368 1.201182,3.090945 2.772957,4.229531 1.592941,0.984576 1.830291,0.859249 3.274891,0.66623 z"
         id="path322"
         sodipodi:nodetypes="cssccsssssccsccssssssssssssssssssscccssssssssccssssscscssssssssssssssssssssscscssccsccsssssssccssssssccsssssssscsssssssssccsssccsssssscsssssssssscsccssccsssccsscc"
         inkscape:label="Body" /><path
         style="display:inline;fill:#000000;fill-opacity:0.3;stroke-width:0.321343"
         d="m 97.47216,293.87352 c -23.402312,-0.7844 -45.473175,-3.57475 -48.265839,-6.10208 -0.812776,-0.73554 -0.719015,-1.6021 0.241439,-2.23143 1.035688,-0.67859 4.45315,-1.64149 7.374505,-2.07781 2.456735,-0.36694 9.059126,-1.24891 9.316961,-1.25354 0.08837,-0.001 1.342831,-0.28203 1.342831,0.37125 0,1.12416 -0.510742,1.42548 0.705742,1.69459 0.706956,0.1564 1.989903,0.099 3.58055,0.0182 2.463523,-0.12519 3.981858,-0.34259 9.045765,-2.03796 7.903849,-2.6462 7.804969,-2.38842 12.517767,-0.75447 2.09936,0.72786 3.61333,0.85644 3.903946,0.85644 0.733783,0 1.427544,-0.36252 1.198073,-0.96051 -0.166026,-0.43267 1.030754,-0.4752 5.87688,-0.47426 3.0432,6.4e-4 7.79744,0.095 10.56499,0.20977 l 5.63497,0.33916 -3.42932,2.6514 c -1.80132,1.39273 -4.503,3.75843 -6.1375,5.25948 -2.96215,2.72028 -3.28575,3.99153 -2.39908,4.55308 0.42161,0.267 -4.40102,0.16236 -11.07268,-0.0613 z m 17.11129,-2.1757 c 2.85013,-1.05323 5.70867,-2.49061 6.70284,-2.92889 0.99417,-0.43828 2.32784,-0.95101 2.5309,-0.95101 0.49827,0 12.97542,5.90379 12.98087,6.14894 0.008,0.30659 -12.46495,0.16159 -20.1892,0.11149 l -8.10416,-0.13417 z m 25.49822,1.42548 c -0.415,-0.4304 -5.71581,-5.85753 -8.7255,-8.28198 -0.88371,-0.71183 -1.98368,-1.70181 -2.47931,-2.14235 l -1.17459,-1.04397 1.61911,0.11647 c 0.59864,0.0489 3.40211,0.24726 6.22994,0.44057 12.4762,0.85287 23.05588,2.48181 27.40555,4.21959 4.38233,1.75082 2.15253,3.58061 -6.19691,5.08524 -3.81016,0.6866 -12.10243,1.61507 -14.42453,1.61507 -2.81016,0.16519 -2.09455,0.48081 -2.25376,-0.009 z m -27.90625,-80.96169 c -0.56025,-0.12145 -5.46733,-1.0141 -6.07452,-1.24856 -0.52348,-0.20214 -7.445334,-1.89548 -7.159225,-2.03927 0.616381,-0.30977 7.489335,0.64675 7.999155,0.70373 0.57919,0.0647 1.96427,0.075 4.94706,0.0545 4.87477,-0.0339 8.11079,-0.30817 9.90764,-0.67443 0.67905,-0.13841 0.58038,-0.16307 0.55916,1.42718 -0.0167,1.24245 0.28935,2.213 -0.22347,2.23598 -0.61281,0.0275 -0.54831,0.1382 -1.32869,0.0602 -0.49011,-0.0489 0.14857,0.1473 -2.17165,0.10738 -3.43318,-0.28554 -3.58103,-0.003 -6.45546,-0.62665 z m 16.12536,-0.23018 c -0.71265,0.17886 -0.0866,-2.07642 -0.0827,-2.86578 0.008,-1.53175 0.0778,-1.36233 0.93567,-1.54187 1.03679,-0.21697 6.9341,-2.40722 9.28969,-3.8162 5.97379,-3.57319 11.31918,-11.25103 13.5982,-19.53175 1.19444,-4.33994 1.92412,-8.79326 3.26108,-19.90252 0.54238,-4.50683 1.21236,-10.0018 1.48885,-12.21103 1.06737,-8.52851 1.23393,-11.75767 0.84326,-16.34876 -0.20489,-2.40783 -0.63014,-5.39011 -0.94502,-6.62727 -0.48055,-1.8881 -0.67573,-2.24031 -1.2152,-2.19283 l -0.64267,0.0566 0.46505,-1.16441 c 0.26646,-0.66715 1.01587,-0.53965 1.48622,0.0399 0.28735,0.35406 0.99827,1.01667 1.09236,0.92259 0.28268,-0.2827 2.54963,3.11515 2.31781,3.49023 -0.11951,0.1934 0.40793,1.15892 0.59529,1.04311 0.42859,-0.26487 1.51,3.33896 1.52143,5.19072 0.004,0.75058 -0.30681,1.90436 -0.17421,1.90491 0.48646,0.002 0.73795,6.03844 0.11015,9.7104 -0.77394,4.52704 -1.61878,3.23755 -0.96747,3.10824 0.28779,-0.0571 0.63832,-0.47711 1.27841,-1.60759 0.64009,-1.13048 1.62437,-1.6645 1.78089,-1.58041 0.84911,0.45618 0.95301,1.48113 1.00965,2.61691 0.20993,4.21036 -1.17313,10.83176 -3.16363,15.09749 -1.33432,2.85958 -2.00113,3.55243 -2.00113,4.06444 0,0.69071 0.2069,0.33845 0.74699,-0.46211 0.26829,-0.39766 1.19027,-1.88934 2.14145,-2.12879 l 1.49899,-0.88001 0.16197,3.37227 c 0.14535,3.02636 -1.71845,11.64037 -2.74658,13.62571 -0.15279,0.29505 -1.51893,4.73748 -1.72559,5.50952 -0.76885,2.8726 -3.15745,5.88672 -5.1945,8.17312 -0.47343,0.53136 -1.61236,1.67523 -2.11934,2.35252 -1.2064,1.61167 -3.51184,3.5037 -4.78241,4.17615 -0.55588,0.29421 -2.07246,1.44111 -2.42634,1.77577 -2.39125,1.65079 -5.22344,2.74294 -7.14112,4.02745 -0.59779,0.40566 -2.40395,0.94592 -3.78009,1.31664 -5.48201,0.98989 -3.40664,0.28132 -6.51539,1.2867 z m -17.33221,-26.78396 c -2.20924,-0.12961 -5.17362,-0.39816 -6.58753,-0.59676 -5.783408,-0.81231 -13.234032,-1.31055 -19.60193,-1.31082 -7.095782,-2.8e-4 -9.044351,0.15873 -9.253183,0.75514 -0.06976,0.19923 -1.176399,-0.59095 -1.08599,-1.12122 0.247435,-1.45111 0.382759,-1.96922 -0.202192,-2.86197 -0.290724,-0.44371 0.135542,-1.21523 0.225095,-1.30479 0.08955,-0.0895 5.65579,-0.76718 11.996954,-0.42351 11.983583,0.64954 28.986096,1.3883 30.910006,0.79608 l 0.96403,-0.29675 -0.16067,-4.31384 c -0.0884,-2.37262 -0.53694,-4.5584 -0.53694,-5.73501 0.18183,-1.39793 -0.11296,-2.20832 -0.11714,-3.15784 6.5e-4,-0.69167 -0.75036,-2.64156 -0.42396,-3.98067 l -0.028,-2.50689 1.69815,0.38614 c 1.7865,0.56028 2.09711,0.3091 3.52042,0.86507 2.26213,0.89165 7.5895,2.17255 10.26309,2.66588 1.23717,0.22828 3.22822,0.52345 5.12129,0.36801 4.26174,-0.34993 1.50333,-0.0768 4.59879,-0.73988 0.70694,-0.14435 4.15741,-1.57183 4.37919,-1.6163 1.17324,-0.50156 0.55693,0.49925 0.19292,1.65096 -0.2915,0.92226 -1.56775,1.91477 -4.59478,2.88912 -2.7529,0.88609 -3.76157,1.04022 -7.8262,1.19587 -5.19035,0.19876 -8.47286,-0.26599 -11.99931,-1.69892 -1.0575,-0.4297 -1.97009,-0.78127 -2.02799,-0.78127 -0.0579,0 -0.1086,2.13291 -0.11256,4.73982 -0.008,5.29917 -0.45246,11.92452 -0.96694,14.41869 l -0.33938,1.64531 -1.47678,0.20241 c -0.81223,0.11137 -1.70965,0.18018 -1.99427,0.15301 -0.28463,-0.0272 -2.32506,-0.15545 -4.53429,-0.28508 z m 25.06787,-37.67408 c -0.16358,-0.11562 -0.49171,-0.80333 -0.8583,-0.8992 -2.78994,-2.45506 -5.67649,-3.59579 -6.80267,-5.85563 -0.008,-0.19815 1.08323,-0.58197 1.95942,-0.66324 l 1.79856,-0.16683 1.87082,1.91958 c 2.48695,2.55178 3.52959,4.80925 3.61971,5.44974 0.0469,0.33374 0.24491,1.51085 0.0814,1.39523 z m -19.43879,-7.09136 c -0.37552,-1.61923 -0.0122,-3.56499 0.42029,-3.95639 0.51948,-0.47012 1.60881,0.34916 3.52822,1.19872 1.14752,0.50792 2.66426,1.5668 2.67607,1.66565 0.0549,0.46005 -1.00202,1.41642 -2.53843,2.13589 l -3.46749,1.62381 z m -0.45928,-58.394786 c 0.33077,-0.641311 2.42551,-3.061392 2.61572,-3.095343 0.22263,-0.03974 -9.18016,24.467679 -9.40045,24.557799 -1.23837,0.50653 -2.13046,0.59563 -3.88375,0.5227 -1.01152,1.06626 -0.32751,-0.85897 0.30735,-1.89686 z m 1.01909,-24.540502 c -1.09871,-1.144129 1.77521,-6.990779 1.79207,-9.197431 -0.0442,-1.020025 0.46791,-1.050939 1.22246,-1.65259 1.00161,-0.781679 1.4848,-1.303535 2.09106,-2.076416 0.35347,-0.285822 1.47656,-1.511893 1.43238,-1.592657 0.53764,1.125919 0.11025,6.075359 -2.13277,9.969811 -2.27172,2.386233 -2.85109,3.326152 -4.4052,4.549283 z M 97.13558,50.593215 c -1.032124,-0.420536 -2.054079,0.277103 -2.068323,-1.139609 -0.0083,-0.826193 1.351072,-2.384251 1.484654,-2.384251 0.870348,0.263926 1.633536,0.604743 2.446628,0.797842 2.762361,0.656767 5.770061,0.777662 8.979931,0.360945 1.73293,-0.224972 3.60868,-0.416386 4.16836,-0.425361 5.34012,-1.282176 8.73831,-3.618541 11.37323,-4.813853 0.1044,0.169021 -5.92689,4.868802 -6.86291,5.332409 -0.46255,0.229089 -0.8566,0.740989 -2.09301,1.202622 -4.25595,0.578452 -5.76226,1.5691 -6.65234,1.661803 -1.59124,0.404902 -8.717784,0.246159 -9.922731,-0.244794 z"
         id="path320"
         inkscape:label="Shadows"
         sodipodi:nodetypes="sssscssssssssscsssssssscscssssccsssccsssssscsscssssssssssscsssssccscssssssscssssssccccssssssscscsccscccssccsssssssccssssssccsssssscsscsscsccscscccccscccsccsccssccc" /><path
         style="display:inline;fill:#af167a;fill-opacity:1;stroke-width:0.321343"
         d="m 70.280022,83.483534 c -1.466127,-1.86388 -3.867013,-9.424967 -4.566442,-14.453658 -0.572916,-4.119113 -0.6045,-10.211066 0.12835,-13.267949 0.351166,-1.464793 0.911774,-3.30052 1.182496,-3.824036 0.488275,-0.944222 0.923142,-0.777349 3.704178,-0.779769 3.897843,-0.0034 7.268056,-0.435493 12.472431,-1.599116 5.459648,-1.220697 9.112791,-2.671041 11.717646,-4.652051 1.086105,-0.825989 2.045564,-1.430968 2.13213,-1.344402 0.08657,0.08657 0.02765,1.339497 -0.710872,2.604034 -2.007698,3.437651 -3.132001,5.550508 -4.11947,8.579648 -1.663782,5.103789 -2.380856,6.14042 -6.730643,8.131655 -4.472487,2.047401 -7.583178,4.610855 -9.41376,7.526935 -1.488873,2.37174 -2.984707,5.964676 -3.059777,9.676614 -0.02323,1.148795 -0.134513,2.522536 -0.247296,3.052755 -0.275208,1.293857 -1.603877,1.474548 -2.488971,0.34934 z"
         id="path318"
         inkscape:label="Schnabel_unten"
         sodipodi:nodetypes="sssssssssssssss" /><path
         style="display:inline;fill:#cb53a0;fill-opacity:1;stroke-width:0.321343"
         d="m 67.746694,50.365637 c 0,-1.59328 6.218713,-9.627982 10.268483,-12.913744 1.212481,-0.983737 2.777207,-2.498159 3.280144,-3.42222 1.278534,-2.349085 3.837803,-3.539001 6.946475,-3.540471 4.212018,-0.002 7.20973,2.463312 9.191188,6.720118 0.957112,2.056181 0.981801,3.951619 0.197508,4.883375 -1.046964,1.243815 -4.914637,3.905461 -6.896655,4.735881 -4.336858,1.817051 -12.237965,3.611235 -18.036668,3.866113 -3.435151,0.15099 -4.950475,0.05891 -4.950475,-0.329052 z"
         id="path324"
         inkscape:label="Schnabel_oben"
         sodipodi:nodetypes="ssscsssss" /><path
         style="display:inline;fill:#0c0d06;stroke-width:0.321343"
         d="m 136.19399,293.88432 c -1.06043,-0.44761 -4.27909,-1.94897 -7.15259,-3.33635 l -5.22455,-2.52253 -1.20232,0.50966 c -5.08729,2.15642 -12.79623,5.22929 -13.51456,5.38707 -0.5179,0.11381 -1.11781,0.0149 -1.46917,-0.24199 -0.54868,-0.40118 -0.55639,-0.50578 -0.10135,-1.37495 0.69227,-1.32232 7.84939,-7.52184 12.29008,-10.64571 0.95419,-0.67122 0.98767,-0.78482 1.37045,-4.64981 0.97625,-9.85737 1.39391,-16.6154 1.64494,-26.61647 l 0.27019,-10.76499 -0.79908,-1.76738 c -1.34094,-2.96585 -1.40933,-3.45437 -0.89827,-6.41674 0.30068,-1.74286 0.50469,-5.49238 0.56005,-10.2931 l 0.0871,-7.55157 -4.17746,-0.0562 c -4.37853,-0.0589 -8.08434,-0.47499 -11.13272,-1.25004 -0.99757,-0.25364 -1.97365,-0.46116 -2.16906,-0.46116 -0.45805,0 -0.47528,11.11866 -0.0222,14.29976 0.17622,1.23719 0.69516,3.38155 1.15319,4.76526 l 0.8328,2.51585 -0.71098,1.82228 c -1.46392,3.75215 -2.70221,7.1887 -5.4619,15.15802 -4.668688,13.48207 -6.630799,18.98077 -7.734054,21.67423 -0.97945,2.39121 -1.009711,2.5759 -0.473872,2.89208 0.314814,0.18578 1.602986,1.08723 2.862602,2.00326 2.633879,1.91539 3.832321,3.48391 3.679741,4.81602 -0.156485,1.36623 -1.649288,1.3554 -5.504009,-0.04 -4.469188,-1.61777 -5.222304,-1.56134 -12.695643,0.95146 -6.175363,2.07637 -6.223531,2.08661 -9.819881,2.08661 -4.033658,0 -4.949071,-0.3187 -4.547715,-1.58326 0.154326,-0.48624 0.839869,-0.99519 2.047776,-1.5203 0.998679,-0.43414 2.394202,-1.06131 3.101156,-1.39371 l 1.285371,-0.60435 -2.088728,-0.0201 c -6.709177,-0.0648 -10.578145,-0.90594 -10.864716,-2.36177 -0.164765,-0.83705 1.008376,-1.19262 5.644652,-1.71084 2.429186,-0.27152 5.790446,-0.78212 7.469464,-1.13467 4.513549,-0.94768 10.531564,-1.85051 12.446628,-1.86723 1.679934,-0.0147 1.682418,-0.0162 2.44742,-1.54108 3.054761,-6.08884 8.911884,-22.12497 11.926092,-32.65226 0.936726,-3.27156 0.964346,-3.60746 0.387571,-4.7126 -0.767448,-1.47049 -0.860801,-2.37386 -0.482818,-4.67221 0.389735,-2.3698 0.04137,-9.96202 -0.754311,-16.43911 l -0.364133,-2.96416 -1.154536,-0.37117 c -2.217891,-0.71302 -7.916856,-3.5428 -10.150126,-5.03997 -2.775195,-1.86048 -6.984751,-6.00075 -8.746317,-8.60237 -2.777828,-4.10252 -5.58094,-10.58396 -6.043239,-13.97336 -0.433555,-3.17868 0.07733,-2.87874 -4.900848,-2.87727 -2.426789,6.4e-4 -6.436806,0.15085 -8.911149,0.33366 -2.47434,0.18277 -5.289636,0.36295 -6.256214,0.40036 l -1.757409,0.0681 0.102542,-9.50636 c 0.0564,-5.2285 -0.08272,-13.50208 -0.309149,-18.38573 l -0.411688,-8.87937 -0.903693,-0.31504 c -0.497031,-0.17325 -1.634262,-1.04559 -2.52718,-1.93851 -0.892916,-0.89291 -2.014577,-1.82696 -2.492578,-2.07567 -0.478005,-0.2487 -1.230605,-0.83908 -1.672451,-1.31195 -0.683447,-0.73145 -0.803359,-1.16636 -0.803359,-2.91369 0,-1.67455 0.127876,-2.18181 0.69233,-2.74626 l 0.692331,-0.69233 -0.798831,-1.48566 c -1.053065,-1.95848 -0.920274,-4.30639 0.303082,-5.35866 0.561425,-0.48293 0.72387,-0.83464 0.528201,-1.14363 -0.509897,-0.80516 -0.319486,-3.28995 0.33428,-4.36215 0.880444,-1.44396 1.730375,-1.80025 3.917076,-1.64208 l 1.883093,0.13621 v -6.87114 -6.87112 l 2.490408,0.21272 c 10.116837,-0.27696 22.398013,0.45957 25.861994,0.49972 1.284723,0.014 3.275787,0.0678 4.424588,0.11964 1.148801,0.0517 3.697087,0.02 5.662859,-0.0704 l 3.574128,-0.16431 0.640616,-1.32101 c 1.983757,-4.090637 6.530266,-12.227482 10.580656,-18.936089 7.11166,-11.778956 10.05826,-17.746448 13.27804,-26.89092 1.50732,-4.280874 2.22507,-7.39089 1.70572,-7.39089 -0.14654,0 -0.76997,0.339304 -1.3854,0.754006 -0.61542,0.414707 -2.3481,1.245616 -3.85037,1.846469 -2.68504,1.073913 -2.81326,1.092358 -7.55156,1.086388 -4.655835,-0.0059 -4.902308,-0.04013 -7.230223,-1.005307 -1.32554,-0.549577 -2.50715,-0.942435 -2.625804,-0.873019 -0.118658,0.06941 -0.608235,1.317691 -1.087957,2.773944 -2.129129,6.463208 -3.329485,7.982502 -7.743606,9.801117 -2.226416,0.91728 -2.682128,1.254745 -3.899271,2.887492 -1.977586,2.652857 -5.158197,9.215148 -6.784434,13.997758 -0.769646,2.263453 -1.608053,4.324064 -1.863127,4.579137 -0.25508,0.255084 -0.874408,0.46378 -1.376288,0.46378 -1.64336,0 -3.434254,-2.819125 -5.336165,-8.399905 C 63.358907,68.120683 63.130267,58.847073 65.817454,52.130667 68.199792,46.176205 70.819056,42.56219 76.07055,37.98362 l 3.301566,-2.878603 -0.274368,-2.006215 c -0.566226,-4.140341 1.115741,-10.912559 3.933341,-15.837093 2.772596,-4.84587 8.892774,-9.4213969 15.218193,-11.3773226 2.228708,-0.6891529 3.234808,-0.8053912 7.095728,-0.8197881 5.22851,-0.019499 7.2721,0.4715815 12.31135,2.9584495 2.5038,1.2356235 3.50155,1.9790172 6.11074,4.5529202 3.28292,3.238491 4.52822,5.061873 6.37599,9.335739 1.84262,4.261966 2.47643,7.934856 2.46878,14.306391 -0.0134,11.114706 -2.59492,20.022233 -11.03602,38.079151 C 116.32302,85.53396 111.26761,98.4594 110.47678,102.6749 l -0.22202,1.18348 2.04393,-0.17505 c 1.12416,-0.0963 2.42851,-0.2341 2.89856,-0.30628 0.58407,-0.0896 0.93361,0.0424 1.10415,0.41727 0.13723,0.30168 0.29738,7.128 0.35587,15.16961 0.0584,8.04161 0.17985,15.07567 0.2697,15.63123 0.13525,0.8364 0.3431,1.04386 1.20846,1.2062 0.5748,0.10782 2.60225,0.9873 4.50542,1.95436 l 3.46032,1.75831 1.83295,-0.49982 c 2.81076,-0.76644 9.97916,-0.94613 12.90281,-0.32341 2.37062,0.5049 2.4009,0.50293 3.15434,-0.20488 0.41841,-0.39308 2.13391,-2.76712 3.81223,-5.27563 4.35179,-6.50448 7.13016,-9.42621 8.96368,-9.42621 1.09706,0 3.28156,2.61754 4.65232,5.57457 1.95368,4.21451 2.4024,6.42117 2.40644,11.83426 l 0.003,4.71578 0.86623,0.17318 c 1.42242,0.28437 1.68915,1.21146 1.67438,5.81973 -0.0146,4.54561 -0.40161,6.50951 -2.03672,10.33484 l -0.93932,2.19754 0.90033,0.23972 c 1.66163,0.44243 1.78679,0.88063 1.75857,6.1569 -0.0297,5.54873 -0.59492,8.61386 -2.55791,13.87078 -1.54183,4.12909 -2.55888,6.12553 -4.91097,9.64019 -4.84747,7.24337 -12.52145,13.36594 -19.88187,15.86242 -1.61291,0.54705 -6.40134,1.75056 -9.61895,2.4176 -0.91645,0.18998 -1.02169,0.34167 -1.19189,1.71784 -0.10263,0.83018 -0.28115,4.54614 -0.39662,8.25763 -0.1875,6.02626 -0.14421,7.00605 0.40452,9.15829 0.42482,1.66622 0.54153,2.80679 0.37815,3.69545 -0.12997,0.70695 -0.39389,4.53896 -0.58648,8.51559 -0.1926,3.97661 -0.49466,9.47159 -0.67123,12.21103 -0.17659,2.73945 -0.41241,9.32917 -0.52404,14.64385 l -0.20298,9.663 1.09454,0.77115 c 2.11083,1.48717 6.90853,5.63929 10.04114,8.69001 2.54071,2.47428 3.14087,3.23239 3.05276,3.85611 -0.15441,1.09304 -1.81767,1.12515 -4.28715,0.0829 z m 1.76739,-1.2721 c 0,-0.32461 -7.39489,-7.55061 -9.8129,-9.5888 -1.23061,-1.03728 -2.34193,-2.05937 -2.46963,-2.27129 -0.57111,-0.94785 0.8439,-40.02603 1.64166,-45.33756 0.17378,-1.157 0.10882,-2.05994 -0.21977,-3.05275 -0.34721,-1.04921 -0.46251,-3.03607 -0.45072,-7.76747 0.0292,-11.70728 1.47561,-23.04524 2.94005,-23.04524 0.42199,0 0.42723,-0.0696 -0.12295,1.62981 -0.4708,1.45414 -1.3029,7.96072 -1.05037,8.21324 0.19983,0.19984 6.01917,-1.09405 8.02617,-1.78457 5.14953,-1.7717 11.45957,-5.73345 15.35314,-9.63947 5.98457,-6.00374 9.44702,-13.03381 11.56474,-23.48083 0.9784,-4.82654 1.27428,-9.64324 0.59237,-9.64324 -0.37931,0 -2.26675,1.91675 -3.08519,3.13311 -0.50654,0.75281 -1.57905,1.02473 -1.26742,0.32133 3.71324,-8.38139 4.46472,-10.73662 5.07398,-15.9027 0.35257,-2.98948 0.18298,-5.6915 -0.37901,-6.03884 -0.16511,-0.10208 -0.69903,0.48452 -1.18648,1.30348 -0.48744,0.81894 -1.15194,1.93555 -1.47668,2.48135 -0.94319,1.58529 -1.11796,0.5389 -0.429,-2.56864 0.92099,-4.15418 0.89356,-11.14271 -0.0589,-15.01096 -0.76289,-3.09823 -2.44792,-6.46415 -3.99131,-7.97287 l -0.95679,-0.93528 -1.74849,1.71611 c -0.96169,0.94385 -2.80858,3.30676 -4.10423,5.25089 -3.9374,5.9081 -5.45151,7.81842 -7.38993,9.32362 -1.02091,0.79275 -1.98339,1.44136 -2.13886,1.44136 -0.52093,0 -0.28967,-1.07585 0.3858,-1.79485 l 0.66849,-0.71156 -1.71285,-0.36858 c -2.93281,-0.63108 -6.41559,-0.76449 -8.94775,-0.34273 -1.32297,0.22036 -2.51562,0.46571 -2.65035,0.54522 -0.13471,0.0795 0.8775,0.94898 2.24941,1.93214 4.16043,2.98158 6.18576,4.77809 10.00289,8.87276 3.90885,4.19305 6.29575,7.28979 6.62262,8.59209 0.52636,2.09716 -3.59203,3.59671 -9.9537,3.62426 -4.75262,0.0207 -6.49605,-0.30083 -13.40294,-2.47104 -2.52575,-0.79363 -5.13915,-1.53307 -5.80758,-1.64324 -1.14295,-0.18836 -1.20528,-0.15626 -1.04707,0.53922 0.20639,0.90729 1.02607,10.68821 1.30382,15.55782 0.20189,3.53981 0.1971,3.5732 -0.54358,3.78964 -2.0073,0.58661 -18.146146,0.545 -30.471496,-0.0785 -6.981178,-0.3532 -12.784078,-0.54557 -12.895333,-0.42752 -0.339591,0.36038 0.387732,4.22766 1.36995,7.28422 2.209449,6.87556 7.857576,14.50965 13.511767,18.26269 6.133489,4.07117 22.197212,8.24201 30.308592,7.86942 l 2.2494,-0.10341 -0.0382,-2.76975 c -0.0475,-3.44066 -0.59869,-5.82003 -1.63308,-7.04934 -0.69343,-0.8241 -0.72767,-0.97033 -0.26843,-1.14655 0.81008,-0.31087 2.05045,1.08037 2.59346,2.9089 1.19177,4.01307 1.29516,15.34496 0.21571,23.64188 -0.75933,5.83645 -0.71443,6.90201 0.38202,9.06588 l 0.93013,1.83565 -0.18641,8.76867 c -0.16465,7.74371 -1.83139,32.00231 -2.32461,33.83341 -0.0952,0.35349 -1.37891,1.58263 -2.85267,2.73142 -4.00739,3.1238 -8.83453,7.19775 -8.85247,7.47123 -0.0466,0.70975 2.32564,-0.0444 9.78515,-3.11096 1.94413,-0.7992 3.78522,-1.4565 4.09129,-1.46063 0.50753,-0.008 1.53976,0.44196 7.95907,3.46077 3.87299,1.82137 6.10552,2.59565 6.10552,2.11755 z M 79.922803,281.7242 c 7.523865,-2.52814 8.762642,-2.62783 13.540265,-1.08955 4.704806,1.51483 4.968699,0.47351 0.666559,-2.63026 -3.828446,-2.76201 -3.774897,-2.70253 -3.371654,-3.74566 3.098429,-8.01521 5.14165,-13.67911 7.855862,-21.77676 1.069384,-3.19044 4.398345,-12.36788 5.620285,-15.49426 l 1.03205,-2.64055 -0.87787,-2.98294 c -0.77238,-2.6245 -0.90735,-3.77462 -1.12312,-9.5705 -0.13488,-3.62314 -0.18196,-6.69851 -0.10462,-6.83415 0.0773,-0.13562 0.0436,-1.023 -0.0749,-1.97193 -0.2143,-1.71517 -0.22437,-1.72819 -1.70948,-2.20742 -0.82164,-0.26515 -1.536601,-0.44371 -1.588782,-0.39681 -0.05219,0.0468 0.145812,3.82179 0.439992,8.38864 0.4443,6.89739 0.46633,8.66665 0.13009,10.44867 -0.376948,1.99774 -0.357482,2.24299 0.28303,3.56611 0.87581,1.80917 0.86386,2.45146 -0.11671,6.27505 -2.2025,8.5884 -5.367173,17.67836 -8.587872,24.6671 -1.140272,2.47434 -2.557454,5.58335 -3.149284,6.90888 -0.591833,1.32554 -1.211071,2.59083 -1.376084,2.81175 -0.170691,0.22853 -1.010309,0.40421 -1.947729,0.40756 -1.976417,0.008 -7.585967,0.7649 -10.484639,1.41644 -1.1488,0.25822 -3.317866,0.68507 -4.820146,0.94854 -1.502278,0.26348 -3.71805,0.65151 -4.923939,0.86228 -3.448869,0.60286 -2.151979,1.01434 3.762368,1.19374 l 5.305329,0.16092 3.902727,-1.67501 c 2.146501,-0.92125 3.98574,-1.59201 4.087198,-1.49055 0.101459,0.10142 0.124215,0.23511 0.05057,0.29701 -0.486482,0.4089 -4.747856,2.69957 -9.051164,4.8654 -2.783633,1.40099 -5.061152,2.65104 -5.061152,2.77788 0,0.36094 0.942938,0.52144 3.300703,0.56183 1.882154,0.0322 3.015429,-0.24479 8.392157,-2.05145 z m 36.464867,-103.1865 1.08097,-0.16815 -0.19371,-2.951 c -0.1065,-1.62305 -0.34887,-5.48157 -0.53849,-8.5745 -0.18961,-3.09293 -0.38608,-6.11673 -0.43658,-6.71957 -0.0868,-1.03617 -0.18637,-1.12025 -1.82208,-1.53887 -0.95164,-0.24354 -1.8485,-0.65409 -1.99302,-0.91232 -0.1576,-0.28164 -0.74503,-0.46953 -1.46789,-0.46953 -2.45684,0 -2.60145,-1.33357 -0.38495,-3.55007 l 1.59142,-1.59141 h -1.07005 c -1.22857,0 -1.93202,-0.65754 -1.65093,-1.54318 0.20663,-0.65103 4.33352,-4.73789 5.59715,-5.54288 l 0.75686,-0.48213 -0.0362,-16.05884 c -0.0199,-8.83237 -0.12882,-17.83479 -0.24201,-20.00537 l -0.20578,-3.94655 -3.55499,0.0904 c -2.8879,0.35277 -6.7781,0.23133 -8.71457,0.24131 -5.58858,-0.0265 -14.165477,0.19399 -19.744878,0.13549 -17.46612,0.31087 -17.887288,-0.70515 -31.061505,-0.52186 -2.249639,-0.29331 -2.383277,-0.0673 -2.381386,4.02719 9.64e-4,1.97953 0.09461,5.00277 0.208224,6.71831 l 0.206558,3.11917 1.639502,1.0887 c 3.738572,2.48258 6.620317,5.86558 6.620317,7.7719 0,0.86604 -0.942236,1.77157 -1.843401,1.77157 H 55.96649 l 0.668894,1.08229 c 1.259881,2.03853 0.70924,3.69515 -1.394941,4.19676 l -0.939137,0.22385 0.855073,0.79287 c 0.919059,0.8522 1.370289,2.07388 1.062371,2.8763 -0.285037,0.74279 -2.22059,1.43226 -4.02086,1.43226 h -1.592254 l 0.136619,2.32973 c 0.595414,10.15352 0.791539,16.72813 0.775231,25.98757 -0.01781,10.10575 0.01423,10.72248 0.554213,10.66735 7.701641,-0.7866 23.996787,-0.97553 33.510768,-0.38856 11.63707,0.71795 27.475643,0.92962 30.805193,0.4117 z M 88.966139,154.76337 c -3.898004,-1.427 -5.509649,-5.78901 -4.963909,-13.43512 0.667915,-9.35781 5.2568,-14.90685 10.957108,-13.24972 4.084894,1.1875 6.012722,5.52404 5.633222,12.67156 -0.28473,5.3623 -1.622778,9.36564 -4.015536,12.01415 -2.07177,2.29319 -4.829163,3.01747 -7.610885,1.99913 z m 4.828041,-3.36019 c 2.041126,-1.91754 3.356637,-6.79455 3.356637,-12.44409 0,-4.24619 -0.5611,-6.42391 -1.958001,-7.59933 -1.974734,-1.66162 -4.350432,-0.71463 -5.88908,2.34749 -1.388938,2.76417 -1.915507,5.61661 -1.935031,10.48212 -0.01921,4.78859 0.216918,5.73501 1.864609,7.47327 0.931813,0.98304 3.386965,0.84337 4.560866,-0.25946 z m -20.503085,3.20411 c -0.769147,-0.448 -0.735715,-1.37202 0.413727,-11.43519 0.536841,-4.69995 0.916817,-8.60462 0.844387,-8.67706 -0.07244,-0.0724 -0.789672,0.37055 -1.593865,0.98441 -2.959917,2.25935 -4.676972,2.70754 -5.282388,1.37879 -0.468467,-1.02817 -0.06302,-1.60781 1.926769,-2.75462 1.612982,-0.92962 4.782912,-3.76848 6.222488,-5.57259 0.572298,-0.71721 0.833489,-0.81661 1.606714,-0.61141 0.668593,0.17746 0.950259,0.47145 1.020962,1.06564 0.05369,0.45133 -0.332134,4.49069 -0.857411,8.97638 -0.525277,4.48569 -1.134196,9.93958 -1.353153,12.11977 -0.402797,4.0107 -0.734117,4.88333 -1.846483,4.86318 -0.296667,-0.004 -0.792454,-0.15716 -1.101747,-0.3373 z m 71.177475,6.60842 c 1.01626,-0.3117 1.84773,-0.72927 1.84773,-0.92791 0,-1.36718 -7.8849,-10.04431 -12.85373,-14.1452 -2.1946,-1.81125 -5.84137,-4.33974 -7.61077,-5.2769 -1.28333,-0.67974 -2.46446,-0.39886 -5.17307,1.23021 -4.31876,2.59748 -10.85645,8.28451 -10.23645,8.90451 0.61826,0.61825 2.89367,-0.13033 7.11851,-2.34189 4.28986,-2.24561 5.57345,-2.76561 5.15483,-2.08825 -0.19664,0.31815 -4.33602,3.09546 -7.40144,4.96597 -2.13931,1.3054 -5.30964,3.933 -5.30964,4.40065 0,0.54081 2.15837,0.32093 4.72322,-0.48118 2.65034,-0.82884 9.73066,-2.74943 10.13889,-2.75027 0.13256,-2.7e-4 0.24101,0.12501 0.24101,0.27839 0,0.30221 -5.07593,2.13679 -9.06952,3.27798 -1.36509,0.39007 -2.4108,0.82441 -2.32379,0.96518 0.2128,0.34433 2.89126,1.06313 6.41249,1.72087 1.59064,0.29711 4.91655,1.02888 7.39089,1.62616 6.1101,1.47489 5.56223,1.4076 10.60432,1.30234 3.15623,-0.066 5.05022,-0.26304 6.34652,-0.66066 z m -24.27279,-19.9682 c 1.376,-0.8227 2.63461,-1.61345 2.79693,-1.75722 0.26639,-0.23597 -4.91188,-2.85248 -5.6453,-2.85248 -0.1755,0 -0.28117,1.29833 -0.24847,3.05276 0.0313,1.67902 0.17799,3.05276 0.32597,3.05276 0.14799,0 1.39487,-0.67311 2.77087,-1.49582 z m -70.984599,-0.99459 c -0.06812,-0.35924 -0.453856,-0.59516 -1.067926,-0.65321 l -0.961282,-0.0908 0.803357,0.64607 c 0.99415,0.79949 1.364501,0.82909 1.225851,0.098 z m 4.344059,-2.05275 c 2.703739,-0.54299 2.377923,-1.63091 -1.071106,-3.57647 -1.673661,-0.94409 -7.422842,-3.12738 -8.235248,-3.12738 -1.115427,0 -1.726387,0.97248 -1.726387,2.74793 0,1.52061 0.108629,1.77967 1.117831,2.66576 0.614805,0.53981 1.590885,1.05888 2.169065,1.15348 3.359648,0.5497 5.501061,0.58749 7.745845,0.13668 z m 2.775184,-5.72146 c 0.781727,-1.46068 -1.450269,-3.42174 -7.220393,-6.34396 -3.811993,-1.93055 -4.82565,-2.2049 -5.796392,-1.56886 -1.671992,1.09555 -0.634115,5.36558 1.458262,5.99961 0.441846,0.1339 2.032495,0.61648 3.534773,1.0724 5.169163,1.56883 7.503228,1.81342 8.02375,0.84081 z m 1.262759,-4.96009 c 1.175617,-1.41653 -4.102835,-6.78653 -8.740312,-8.89191 -2.027297,-0.92038 -3.576154,-0.82844 -4.328141,0.2569 -0.933303,1.34702 -1.086722,2.01239 -0.720133,3.12317 0.308367,0.93436 0.751175,1.19384 5.468044,3.20425 6.399906,2.72775 7.677727,3.08214 8.320542,2.30759 z m 51.412767,-24.56603 c 0.19272,-1.40572 2.63554,-8.75245 3.7081,-11.225438 0.59336,-1.368096 1.58086,-3.644276 2.19442,-5.058185 0.61358,-1.413909 2.71393,-5.896647 4.66746,-9.961634 1.95352,-4.06499 4.12208,-8.836933 4.81902,-10.60432 3.77175,-9.564898 6.06365,-19.532407 6.39137,-27.796173 C 131.34185,24.299329 126.86713,14.770807 116.91413,8.7671615 112.50406,6.1070043 105.15987,5.2410867 99.885047,6.7593441 91.450288,9.1871318 83.489537,17.203361 81.427042,25.345985 c -0.591101,2.333635 -0.929371,7.176679 -0.501266,7.176679 0.0899,0 0.767543,-0.4376 1.505877,-0.972444 4.92868,-3.570318 11.702283,-1.65286 15.191033,4.300251 2.005805,3.422643 1.529265,7.63756 -1.344476,11.891711 -0.5805,0.859342 -1.055252,1.654665 -1.055005,1.767386 9.65e-4,0.495294 4.280402,1.443866 7.115375,1.577226 3.58353,0.168573 6.96501,-0.406649 10.95878,-1.864195 2.98334,-1.088784 5.05667,-2.325064 7.89954,-4.7103 3.37055,-2.827967 3.40925,-2.085437 0.0784,1.505334 -1.60573,1.731062 -1.96857,2.334323 -2.12606,3.534774 -0.30826,2.349676 -2.05426,9.209171 -3.10142,12.184528 -1.76052,5.002279 -6.37136,13.594479 -11.05134,20.593905 -2.69297,5.199204 -11.812994,18.07385 -12.575106,21.24328 2.625898,-0.0882 13.291146,1.1891 16.584516,-0.62153 z M 98.568357,32.2364 c -2.270295,-1.384412 -3.671009,-4.507797 -3.659886,-8.161007 0.01202,-3.929795 1.481157,-6.013129 4.240524,-6.013129 2.176755,0 4.670995,2.791067 5.240825,5.864511 0.23864,1.287151 0.45492,1.409427 1.5019,0.849098 0.61012,-0.326528 0.6477,-0.286693 0.45477,0.482013 -0.20493,0.816515 0.20415,1.165666 0.60529,0.516611 0.10924,-0.176738 0.40243,-0.321343 0.65157,-0.321343 0.91086,0 0.055,0.976539 -1.46843,1.675409 -1.38126,0.633666 -1.59106,0.868426 -1.91076,2.138084 -0.7576,3.008706 -3.35519,4.372653 -5.655803,2.969753 z m 3.874513,-0.927918 c 0.29826,-0.777263 0.008,-0.786006 -1.25929,-0.038 -0.80823,0.476863 -1.06255,0.780555 -0.79312,0.947076 0.50093,0.309588 1.8067,-0.268782 2.05241,-0.90908 z m -4.692581,-6.088038 c 0.405255,-0.72415 -0.109026,-1.695348 -0.897739,-1.695348 -0.694046,0 -1.08437,0.794036 -0.812066,1.651986 0.238411,0.751166 1.298649,0.778055 1.709805,0.04336 z m 4.875111,-3.438463 c -1.63525,-3.377981 -4.590961,-4.111164 -5.953272,-1.476748 -0.266936,0.516202 -0.485341,1.166345 -0.485341,1.44477 0,0.456661 0.0995,0.454769 1.016328,-0.01934 1.397962,-0.722911 3.194765,-0.426961 4.688395,0.772229 0.66229,0.531724 1.25686,0.914491 1.32127,0.85059 0.0644,-0.06391 -0.1999,-0.771079 -0.58738,-1.571504 z m -0.10987,-7.018341 c -1.16898,-0.751973 -1.93016,-0.998928 -3.132848,-1.016412 -1.686591,-0.02453 -1.939469,-0.441904 -0.548619,-0.905521 1.593717,-0.53124 4.543997,0.754622 5.399637,2.35339 0.4437,0.829061 0.11181,0.745718 -1.71817,-0.431457 z M 72.768992,83.134194 c 0.112782,-0.530219 0.224063,-1.90396 0.247295,-3.052755 0.17271,-8.540085 3.782222,-13.733739 12.233486,-17.602535 4.349787,-1.991235 4.93338,-2.679781 6.597163,-7.78357 0.987469,-3.02914 2.010794,-5.238582 4.018492,-8.676233 0.738526,-1.264536 1.271949,-2.369981 1.185382,-2.456548 -0.08657,-0.08657 -1.046025,0.518413 -2.13213,1.344402 -2.604855,1.98101 -6.257998,3.431354 -11.717646,4.652051 -5.204375,1.163623 -8.574588,1.595726 -12.472431,1.599116 -2.781036,0.0025 -2.807443,0.01005 -3.295718,0.954286 -0.270722,0.523517 -0.779536,2.150316 -1.130703,3.615109 -0.732848,3.056883 -0.869386,9.183246 -0.296472,13.302359 0.69943,5.028691 3.067095,12.564557 4.533222,14.428426 0.885095,1.125219 1.954852,0.969749 2.23006,-0.324108 z m 1.934099,-32.950178 c 6.614381,-0.663583 13.129364,-2.212418 16.819887,-3.998668 1.239555,-0.599957 3.229848,-1.931189 4.422876,-2.958291 2.146728,-1.848163 2.167528,-1.881681 2.013081,-3.243822 -0.338472,-2.985168 -3.130035,-6.980657 -5.743813,-8.220977 -1.567811,-0.743977 -4.289779,-1.212045 -5.648938,-0.971391 -2.179605,0.385923 -4.187881,1.734876 -5.016111,3.369305 -0.447801,0.883692 -1.530164,2.139125 -2.622818,3.042196 -3.161819,2.613226 -7.114271,6.915582 -9.110939,9.917507 -1.049247,1.577501 -1.907717,2.987395 -1.907717,3.133094 0,0.361072 2.790394,0.332755 6.794492,-0.06895 z m 3.488484,-3.732686 c 0,-1.205415 2.052837,-3.051087 4.935892,-4.437782 3.341629,-1.607258 4.114749,-1.476629 3.435821,0.580535 -0.529291,1.603775 -2.255324,3.062827 -4.652692,3.933026 -2.890077,1.049042 -3.719021,1.032151 -3.719021,-0.07577 z"
         id="path316"
         inkscape:label="Kontur"
         sodipodi:nodetypes="sscssssssscssscssssscsssssssssssscsssssssssscsssscsscsscsssssscssssscccccsccsssssscssssssssssscsssssssssscccssssscssssssccssscscssssssssssscssssscssssssssssssssssssssscssssscsscssscsssssssssscsssssscssssscsccsssssscssssssssssssscsssscssssssssccssssssscssscssccccccscssscsscssscsscsccsssssssssssssssssssssssscsssssssssssssssssscssssssssscsssssssssssssssssssssscsssssssssssscsssssscccscsssssssssssssssssssssssssssssssssssssssscsssssssssssssssssssssss" /></g></g></svg>
